<svg width="81" height="40" viewBox="0 0 81 40" fill="none" xmlns="http://www.w3.org/2000/svg">
<path d="M17.5757 15.3656H19.9999V18.1938H17.5757V23.9312H13.9394V20.3757C11.3535 20.9009 8.78785 21.1837 5.05049 21.1837H0.808078V18.4161H2.42424V12.6787H1.21212V9.95144H12.3636V12.6787H11.1515V18.113C12.1414 17.9918 13.0707 17.8504 13.9394 17.6888V9.74942H17.5757V15.3656ZM2.80807 28.7393V22.7393H6.52523V25.9312H17.9797V28.7393H2.80807ZM6.06059 18.4161C6.56564 18.3959 7.05048 18.3959 7.51513 18.3757V12.6787H6.06059V18.4161ZM40.2019 16.7797V19.608H37.7777V28.7393H34.1413V25.5676C31.5555 26.315 28.9898 26.7393 25.2524 26.7393H21.6161V10.3555H31.9595V13.0827H25.2524V23.9716C28.9494 23.9716 31.5757 23.608 34.1413 22.8807V9.74942H37.7777V16.7797H40.2019ZM60.4039 16.7797V19.608H57.9796V28.7393H54.3433V9.74942H57.9796V16.7797H60.4039ZM41.8181 26.7393V10.3555H52.3837V26.7393H41.8181ZM45.4544 23.9716H48.7877V13.1231H45.4544V23.9716ZM75.8584 9.74942H79.3937V20.6989H75.8584V9.74942ZM60.8079 18.5373C63.1715 18.0524 64.9493 17.305 65.9392 16.3555L62.02 16.5979V13.9716H66.7877V12.6787H62.4241V9.95144H70.323V13.5878H71.4745V9.85043H74.9089V20.6989H71.4745V16.4161H69.7978C68.7271 18.4969 66.0402 20.214 61.9594 21.2443L60.8079 18.5373ZM63.0099 25.8504C67.9998 25.6686 69.4543 24.6383 69.4543 22.8807V21.3453H73.0907V23.2039C73.0907 23.6888 73.0301 24.1534 72.9089 24.5777C75.2523 24.7393 77.5755 25.0625 79.3937 25.4867L78.424 28.7393C76.3432 28.012 73.4341 27.3049 71.0907 26.9211C69.4139 28.0524 66.7271 28.5979 63.3938 28.7393L63.0099 25.8504Z" fill="#3692FF"/>
</svg>
